<svg height="300px" width="300px" fill="#000000" xmlns="http://www.w3.org/2000/svg" viewBox="0 0 96 96" x="0px" y="0px"><title>Artboard 14</title><g><path d="M66,24H64V19.6316a6,6,0,1,0-4,0V24H36V19.6316a6,6,0,1,0-4,0V24H30A10.0117,10.0117,0,0,0,20,34V66A10.0117,10.0117,0,0,0,30,76h6V86a1.999,1.999,0,0,0,3.1992,1.6L54.666,76H66A10.0117,10.0117,0,0,0,76,66V34A10.0117,10.0117,0,0,0,66,24ZM38,37c3.4766,0,6,2.1035,6,5a2,2,0,0,1-4,0c0-1.3789-4-1.3789-4,0a2,2,0,0,1-4,0C32,39.1035,34.5234,37,38,37ZM62.8945,59.7891A33.8527,33.8527,0,0,1,48,63.0254a33.8527,33.8527,0,0,1-14.8945-3.2363,2,2,0,0,1,1.789-3.5782c7.4727,3.7344,18.7383,3.7344,26.211,0a2,2,0,1,1,1.789,3.5782ZM62,44a1.9988,1.9988,0,0,1-2-2c0-1.3789-4-1.3789-4,0a2,2,0,0,1-4,0c0-2.8965,2.5234-5,6-5s6,2.1035,6,5A1.9988,1.9988,0,0,1,62,44Z"/><path d="M8,46v8a6.0066,6.0066,0,0,0,6,6h2V40H14A6.0066,6.0066,0,0,0,8,46Z"/><path d="M82,40H80V60h2a6.0066,6.0066,0,0,0,6-6V46A6.0066,6.0066,0,0,0,82,40Z"/></g></svg>