<svg height="300px" width="300px" fill="#000000" xmlns="http://www.w3.org/2000/svg" data-name="Layer 1" viewBox="0 0 512 512" x="0px" y="0px"><title>Roll a dice</title><path d="M25.7,472.778A7.93,7.93,0,0,0,31.312,475h.064l69.736-.482a7.969,7.969,0,0,0,7.936-8.026l-.063-7.763,18.152-10.556a31.883,31.883,0,0,1,23.668-3.439l109.152,26.5c.173.042.348.08.523.11a114.726,114.726,0,0,0,19.543,1.67,116.609,116.609,0,0,0,52.4-12.413,8.056,8.056,0,0,0,.974-.582l153.1-106.933a8,8,0,0,0,2.239-10.739,43.616,43.616,0,0,0-58.19-15.492L362.2,362.163a55.317,55.317,0,0,0-48.076-28.046l-.449,0-63.6.509a68.438,68.438,0,0,1-29.485-6.509L214.01,325a113.3,113.3,0,0,0-106.059,4.53l-.128-15.813a7.816,7.816,0,0,0-8-7.717H99.76l-69.738.339a7.816,7.816,0,0,0-7.935,7.9l1.225,152.967A7.85,7.85,0,0,0,25.7,472.778ZM207.159,339.459l6.583,3.119a84.091,84.091,0,0,0,35.81,8.052c.218,0,.436-.06.655-.062L313.8,350h.319a39.409,39.409,0,0,1,38.4,31.036l-95.718.8A8.085,8.085,0,0,0,256.86,398h.065l104.538-.906a8.06,8.06,0,0,0,7.935-8.117,55.305,55.305,0,0,0-1.377-11.8l69.954-36.147c.062-.031.123-.067.184-.1a27.644,27.644,0,0,1,32.159,3.941l-145.612,101.7a100.464,100.464,0,0,1-61.24,9.054L154.578,429.19a47.811,47.811,0,0,0-35.49,5.165l-10.25,5.966-.734-91.827A97.41,97.41,0,0,1,207.159,339.459ZM91.888,321.625l1.1,137.033-53.737.43-1.1-137.033Z"/><path d="M287.989,154.531l102.449,48.408a8,8,0,0,0,10.651-3.815L449.5,96.674a8,8,0,0,0-3.815-10.651L343.233,37.615a8,8,0,0,0-10.651,3.815L284.174,143.879A8,8,0,0,0,287.989,154.531ZM343.631,55.5l87.981,41.573L390.04,185.055l-87.981-41.573Z"/><path d="M375.146,102.606a19.545,19.545,0,1,0,10.049,11.08A19.414,19.414,0,0,0,375.146,102.606ZM370,121.792a3.545,3.545,0,1,1-4.4-4.852,3.6,3.6,0,0,1,1.206-.209,3.483,3.483,0,0,1,1.5.341A3.549,3.549,0,0,1,370,121.792Z"/><path d="M336,193a8,8,0,0,0-8-8H215a8,8,0,0,0-8,8V306a8,8,0,0,0,8,8H328a8,8,0,0,0,8-8Zm-113,8h97v98H223Z"/><path d="M245.512,205.6a19.545,19.545,0,1,0,19.545,19.544A19.566,19.566,0,0,0,245.512,205.6Zm0,23.089a3.545,3.545,0,1,1,3.545-3.545A3.549,3.549,0,0,1,245.512,228.692Z"/><path d="M297.084,256.175a19.545,19.545,0,1,0,19.545,19.545A19.567,19.567,0,0,0,297.084,256.175Zm0,23.089a3.545,3.545,0,1,1,3.545-3.544A3.548,3.548,0,0,1,297.084,279.264Z"/><path d="M297.084,204.6a19.545,19.545,0,1,0,19.545,19.544A19.566,19.566,0,0,0,297.084,204.6Zm0,23.089a3.545,3.545,0,1,1,3.545-3.545A3.549,3.549,0,0,1,297.084,227.692Z"/><path d="M245.512,256.175a19.545,19.545,0,1,0,19.545,19.545A19.566,19.566,0,0,0,245.512,256.175Zm0,23.089a3.545,3.545,0,1,1,3.545-3.544A3.548,3.548,0,0,1,245.512,279.264Z"/></svg>