<svg height="300px" width="300px" fill="#000000" xmlns="http://www.w3.org/2000/svg" xmlns:xlink="http://www.w3.org/1999/xlink" version="1.1" x="0px" y="0px" viewBox="0 0 64 64" style="enable-background:new 0 0 64 64;" xml:space="preserve"><path d="M51.6,52c-3.1,0-6.8-2.4-11.4-7.5c-0.2-0.2-0.5-0.4-0.7-0.4l-14.9,0c-0.3,0-0.5,0.1-0.7,0.3c-4.8,5.3-8.8,7.7-12,7.4  c-0.4,0-0.7-0.1-1-0.3c-5-2.3-3.9-14.7,0.2-24.4c1.7-3.9,5.1-6.7,9.3-7.7c0.8-0.2,22.5-0.1,23.3,0.1c4.2,1,7.7,3.8,9.3,7.7  c4.1,9.7,5.2,22,0.2,24.4c-0.3,0.1-0.6,0.2-1,0.3C52,52,51.8,52,51.6,52z M39.5,41.6L39.5,41.6c0.9,0,1.9,0.4,2.6,1.2  c5.3,5.8,8.3,6.8,9.9,6.6c0.1,0,0.2,0,0.2,0c2.8-1.3,2.6-11.5-1.5-21.1c-1.3-3.1-4.2-5.5-7.5-6.2C42,22,22,22,20.8,22.1  c-3.3,0.8-6.1,3.1-7.4,6.2c-4.1,9.6-4.3,19.8-1.5,21.1c0,0,0.1,0,0.2,0c1.6,0.2,4.6-0.9,9.9-6.6c0.7-0.7,1.6-1.1,2.6-1.1L39.5,41.6z  "/><ellipse cx="44.6" cy="29.1" rx="1.7" ry="1.7"/><path d="M44.6,31.2c-1.2,0-2.1-1-2.1-2.1c0-1.2,1-2.1,2.1-2.1c1.2,0,2.1,1,2.1,2.1C46.7,30.3,45.7,31.2,44.6,31.2z M44.6,27.9  c-0.7,0-1.2,0.5-1.2,1.2c0,0.7,0.5,1.2,1.2,1.2c0.7,0,1.2-0.5,1.2-1.2C45.8,28.4,45.2,27.9,44.6,27.9z"/><ellipse cx="48.6" cy="32.3" rx="1.7" ry="1.7"/><path d="M48.6,34.4c-1.2,0-2.1-1-2.1-2.1c0-1.2,1-2.1,2.1-2.1s2.1,1,2.1,2.1C50.7,33.4,49.8,34.4,48.6,34.4z M48.6,31.1  c-0.7,0-1.2,0.5-1.2,1.2c0,0.7,0.5,1.2,1.2,1.2s1.2-0.5,1.2-1.2C49.8,31.6,49.3,31.1,48.6,31.1z"/><ellipse cx="40.5" cy="32.4" rx="1.7" ry="1.7"/><path d="M40.5,34.5c-1.2,0-2.1-1-2.1-2.1c0-1.2,1-2.1,2.1-2.1s2.1,1,2.1,2.1C42.6,33.5,41.7,34.5,40.5,34.5z M40.5,31.2  c-0.7,0-1.2,0.5-1.2,1.2c0,0.7,0.5,1.2,1.2,1.2s1.2-0.5,1.2-1.2C41.7,31.7,41.2,31.2,40.5,31.2z"/><ellipse cx="44.6" cy="35.8" rx="1.7" ry="1.7"/><path d="M44.6,38c-1.2,0-2.1-1-2.1-2.1c0-1.2,1-2.1,2.1-2.1c1.2,0,2.1,1,2.1,2.1C46.8,37,45.8,38,44.6,38z M44.6,34.6  c-0.7,0-1.2,0.5-1.2,1.2c0,0.7,0.5,1.2,1.2,1.2c0.7,0,1.2-0.5,1.2-1.2C45.8,35.2,45.3,34.6,44.6,34.6z"/><path d="M20.4,37.5H20c-0.5,0-0.8-0.4-0.8-0.8v-8c0-0.5,0.4-0.8,0.8-0.8h0.4c0.5,0,0.8,0.4,0.8,0.8v8C21.3,37.1,20.9,37.5,20.4,37.5  z"/><path d="M20.2,38c-0.8,0-1.5-0.7-1.5-1.5v-7.6c0-0.8,0.7-1.5,1.5-1.5c0.8,0,1.5,0.7,1.5,1.5v7.6C21.7,37.3,21.1,38,20.2,38z   M20.2,28.3c-0.3,0-0.6,0.3-0.6,0.6v7.6c0,0.3,0.3,0.6,0.6,0.6c0.3,0,0.6-0.3,0.6-0.6v-7.6C20.8,28.5,20.5,28.3,20.2,28.3z"/><path d="M15.4,32.9v-0.4c0-0.5,0.4-0.8,0.8-0.8h8c0.5,0,0.8,0.4,0.8,0.8v0.4c0,0.5-0.4,0.8-0.8,0.8h-8  C15.8,33.7,15.4,33.3,15.4,32.9z"/><path d="M24.1,34.2h-7.6c-0.8,0-1.5-0.7-1.5-1.5s0.7-1.5,1.5-1.5h7.6c0.8,0,1.5,0.7,1.5,1.5S24.9,34.2,24.1,34.2z M16.5,32.1  c-0.3,0-0.6,0.3-0.6,0.6s0.3,0.6,0.6,0.6h7.6c0.3,0,0.6-0.3,0.6-0.6s-0.3-0.6-0.6-0.6H16.5z"/><path d="M43,21.3c-4.4,0-5.4,3.2-5.6,5.1c-0.1,0.8-0.9,1.4-1.9,1.4h-7.8c-0.9,0-1.6-0.6-1.6-1.3c-0.3-3.4-2.1-5.3-4.9-5.3L43,21.3z"/><path d="M35.6,28.4h-7.8c-1.1,0-2-0.7-2.1-1.7c-0.2-2.2-1.1-4.8-4.4-4.8h0l0,0h0l0,0c-0.3,0-0.5-0.2-0.5-0.5c0-0.3,0.2-0.5,0.5-0.5  c0,0,0,0,0,0l21.7,0l0,0l0,0c0.3,0,0.5,0.2,0.5,0.5s-0.2,0.5-0.5,0.5c-3.8,0-4.9,2.6-5.1,4.7C37.8,27.6,36.8,28.4,35.6,28.4z   M24.4,21.8c1.3,0.9,2.1,2.6,2.3,4.7c0,0.5,0.6,0.9,1.2,0.9h7.8c0.7,0,1.3-0.4,1.4-1c0.1-1.2,0.6-3.4,2.5-4.6L24.4,21.8z"/><path d="M32.1,21.5c-0.7,0-1.3-0.6-1.3-1.3v-7c0-0.7,0.6-1.3,1.3-1.3c0.7,0,1.3,0.6,1.3,1.3v7C33.4,21,32.8,21.5,32.1,21.5z"/></svg>