<svg height="300px" width="300px" fill="#000000" xmlns="http://www.w3.org/2000/svg" xmlns:xlink="http://www.w3.org/1999/xlink" version="1.1" x="0px" y="0px" viewBox="0 0 100 100" enable-background="new 0 0 100 100" xml:space="preserve"><path fill="#000000" d="M94.8,57.9l-0.2-0.7l0-0.2l0,0L82,17.6c-0.6-1.9-2.3-3.1-4.3-3.1c-0.5,0-0.9,0.1-1.4,0.2L42.8,25.3l-34,10.8  c-0.1,0-0.1,0-0.2,0.1l-0.5,0.2c-2.4,0.8-3.7,3.3-2.9,5.7l0.2,0.7l0,0.2l0,0L18,82.4c0.6,1.9,2.3,3.1,4.3,3.1c0.5,0,0.9-0.1,1.4-0.2  l34.2-10.9l33.3-10.6c0.1,0,0.1,0,0.2-0.1l0.5-0.2C94.2,62.8,95.5,60.3,94.8,57.9z M57.5,72.8L23.9,83.5c-0.3,0.1-0.7,0.2-1.1,0.2  c-1.4,0-2.7-0.9-3.3-2.1l15.8-29.2l7.5,2.3c3.3,3.8,10.2,5.2,10.2,5.2s4.8-5.2,5.3-10.2l4.8-6.3l29.8,14.7l0.1,0.5  c0.1,1.6-0.8,3.1-2.3,3.6L57.5,72.8z M6.9,41.4c-0.1-1.6,0.8-3.1,2.3-3.6l34-10.8l32.9-10.5c0.3-0.1,0.7-0.2,1.1-0.2  c1.4,0,2.7,0.8,3.2,2.1L58.3,47.3c-1-4.3-3.8-4.9-6.4-3.6C50,44.7,49,47,49,47s-2.1-1.4-4.3-1c-2.8,0.4-4.7,2.5-3.1,6.6L6.9,41.8  L6.9,41.4z M64.3,42.1l16.8-21.9L92.5,56L64.3,42.1z M33.8,51.9l-15,27.6L7.4,43.7L33.8,51.9z"/></svg>