<svg height="300px" width="300px" fill="#000000" xmlns="http://www.w3.org/2000/svg" xmlns:xlink="http://www.w3.org/1999/xlink" xmlns:sketch="http://www.bohemiancoding.com/sketch/ns" viewBox="0 0 30 30" version="1.1" x="0px" y="0px"><title>emotion_187-tongue_out-smile-face-avatar-emoticon-expression-mood</title><desc>Created with Sketch.</desc><g stroke="none" stroke-width="1" fill="none" fill-rule="evenodd" sketch:type="MSPage"><g sketch:type="MSArtboardGroup" transform="translate(-315.000000, -450.000000)" fill="#000000"><path d="M329.5,471.98838 C329.129414,471.968908 328.765488,471.925572 328.408783,471.860439 C328.377932,471.964413 328.342815,472.094293 328.30747,472.244537 C328.18796,472.75254 328.124461,473.262846 328.1454,473.727495 C328.197318,474.879604 328.71692,475.492706 330.002815,475.499946 C331.290266,475.507195 331.807111,474.894867 331.855176,473.7294 C331.874309,473.265452 331.810767,472.756175 331.692336,472.248895 C331.657782,472.100886 331.623441,471.972397 331.593069,471.868651 C331.235415,471.932917 330.870818,471.974702 330.5,471.991866 L330.5,473 C330.5,473.276142 330.276142,473.5 330,473.5 C329.723858,473.5 329.5,473.276142 329.5,473 L329.5,471.988379 Z M332.566314,471.634555 C332.598172,471.746301 332.632239,471.876292 332.66615,472.021546 C332.803469,472.609732 332.877674,473.204472 332.854326,473.770606 C332.785774,475.432839 331.876151,476.51051 329.997185,476.49993 C328.128906,476.489411 327.220548,475.417598 327.146414,473.772513 C327.120774,473.203551 327.195124,472.606047 327.334044,472.015535 C327.368646,471.868452 327.403413,471.737153 327.435841,471.624749 C326.85991,471.450421 326.305826,471.219978 325.776248,470.943211 C325.33479,470.712497 324.941586,470.465022 324.600681,470.216636 C324.392609,470.065032 324.245645,469.944364 324.163998,469.870273 C323.959501,469.684704 323.944158,469.368494 324.129727,469.163998 C324.315296,468.959501 324.631506,468.944158 324.836002,469.129727 C324.892115,469.180646 325.011591,469.278745 325.189559,469.408414 C325.492053,469.628814 325.843688,469.850126 326.239427,470.056946 C327.382178,470.654169 328.647136,471.008517 330.006731,471.000045 C331.361071,471.018278 332.629699,470.663066 333.774703,470.058241 C334.166012,469.85154 334.513643,469.630347 334.812623,469.410068 C334.988499,469.280488 335.106518,469.18248 335.161877,469.131662 C335.365304,468.944922 335.681598,468.95845 335.868338,469.161877 C336.055078,469.365304 336.04155,469.681598 335.838123,469.868338 C335.757264,469.942564 335.611776,470.063383 335.405783,470.215152 C335.068315,470.463788 334.678994,470.711509 334.241774,470.942461 C333.707306,471.224783 333.147662,471.458915 332.566314,471.634555 Z M330,479 C337.731986,479 344,472.731986 344,465 C344,457.268014 337.731986,451 330,451 C322.268014,451 316,457.268014 316,465 C316,472.731986 322.268014,479 330,479 Z M330,478 C337.179702,478 343,472.179702 343,465 C343,457.820298 337.179702,452 330,452 C322.820298,452 317,457.820298 317,465 C317,472.179702 322.820298,478 330,478 Z M325.782149,462.499906 L322.676387,464.052786 C322.429398,464.176281 322.329286,464.476618 322.45278,464.723607 C322.576275,464.970596 322.876611,465.070708 323.123601,464.947214 L327.123601,462.947214 C327.492125,462.762951 327.492125,462.237049 327.123601,462.052786 L323.123601,460.052786 C322.876611,459.929292 322.576275,460.029404 322.45278,460.276393 C322.329286,460.523382 322.429398,460.823719 322.676387,460.947214 L325.782149,462.499906 Z M334.217851,462.499906 L337.323613,464.052786 C337.570602,464.176281 337.670714,464.476618 337.54722,464.723607 C337.423725,464.970596 337.123389,465.070708 336.876399,464.947214 L332.876399,462.947214 C332.507875,462.762951 332.507875,462.237049 332.876399,462.052786 L336.876399,460.052786 C337.123389,459.929292 337.423725,460.029404 337.54722,460.276393 C337.670714,460.523382 337.570602,460.823719 337.323613,460.947214 L334.217851,462.499906 Z" sketch:type="MSShapeGroup"/></g></g></svg>