<svg height="300px" width="300px" fill="#000000" xmlns="http://www.w3.org/2000/svg" xmlns:xlink="http://www.w3.org/1999/xlink" version="1.1" x="0px" y="0px" viewBox="0 0 64 64" style="enable-background:new 0 0 64 64;" xml:space="preserve"><g><g><path d="M47,4h-8V3c0-1.654-1.346-3-3-3h-8c-1.654,0-3,1.346-3,3v1h-8c-2.206,0-4,1.794-4,4v14c0,2.206,1.794,4,4,4h5v1    c0,1.654,1.346,3,3,3h2v3c0,0.553,0.448,1,1,1h1.248l5.388,18.614c-0.236,0.177-0.455,0.376-0.632,0.618    c-0.563,0.771-0.725,1.775-0.433,2.686l1.928,6.001C35.901,63.163,37.049,64,38.357,64h4c0.955,0,1.862-0.461,2.424-1.232    c0.563-0.771,0.725-1.775,0.433-2.686l-1.928-6.001c-0.389-1.208-1.484-2.025-2.745-2.072L35.33,34H36c0.552,0,1-0.447,1-1v-3h2    c1.654,0,3-1.346,3-3v-1h5c2.206,0,4-1.794,4-4V8C51,5.794,49.206,4,47,4z M27,3c0-0.552,0.449-1,1-1h8c0.551,0,1,0.448,1,1v1H27    V3z M29,32v-2h6v2H29z M41.381,54.693l1.928,6c0.098,0.304,0.044,0.638-0.144,0.896C42.977,61.847,42.675,62,42.357,62h-4    c-0.436,0-0.819-0.279-0.952-0.693l-1.928-6c-0.098-0.304-0.044-0.638,0.144-0.896c0.116-0.159,0.277-0.271,0.457-0.34    c0.007-0.002,0.014-0.001,0.021-0.003c0.012-0.004,0.02-0.013,0.031-0.017C36.226,54.021,36.325,54,36.429,54h4    C40.865,54,41.248,54.279,41.381,54.693z M38.456,52h-1.915l-5.21-18h1.917L38.456,52z M40,27c0,0.552-0.449,1-1,1H25    c-0.551,0-1-0.448-1-1v-1h16V27z M32,18c3.309,0,6,2.691,6,6H26C26,20.691,28.691,18,32,18z M29,13c0-1.654,1.346-3,3-3    c1.654,0,3,1.346,3,3s-1.346,3-3,3C30.346,16,29,14.654,29,13z M44,24h-4c0-3.232-1.931-6.016-4.695-7.277    C36.336,15.807,37,14.485,37,13c0-2.757-2.243-5-5-5c-2.757,0-5,2.243-5,5c0,1.485,0.664,2.807,1.695,3.723    C25.931,17.984,24,20.768,24,24h-7c-1.103,0-2-0.897-2-2V8c0-1.102,0.897-2,2-2h27V24z M49,22c0,1.103-0.897,2-2,2h-1V6h1    c1.103,0,2,0.898,2,2V22z"/><circle cx="18" cy="15" r="1"/></g></g></svg>