<svg height="300px" width="300px" fill="#000000" xmlns="http://www.w3.org/2000/svg" viewBox="0 0 512 512" x="0px" y="0px"><title>Kiss-Emoji-Emotion-Face-Expression-Feeling</title><path d="M306.63,60.69c-29.79-8.28-68-12.84-107.69-12.84S121,52.41,91.25,60.69C57.52,70.06,40.42,82.47,40.42,97.58c0,20.24,29.4,28.54,51.51,33,27.47,5.57,65.47,8.64,107,8.64s79.54-3.07,107-8.64c22.11-4.49,51.51-12.79,51.51-33C357.45,82.47,340.35,70.06,306.63,60.69Z"/><path d="M388.29,183.37c-.41,0-.82,0-1.22,0h-.41a10,10,0,0,0-9.78,10V320.62a10,10,0,0,0,9.78,10h.41l1.22,0a73.64,73.64,0,0,0,0-147.28ZM396.88,310V204.06a53.65,53.65,0,0,1,0,105.91Z"/><path d="M396.88,134.6V88.71c0-22.37-21.36-41.63-61.76-55.69-36.53-12.71-84.89-19.71-136.18-19.71S99.29,20.31,62.76,33C22.36,47.08,1,66.34,1,88.71V423.29C1,445.66,22.36,464.92,62.76,479c36.53,12.71,84.89,19.71,136.18,19.71s99.65-7,136.18-19.71c40.4-14.06,61.76-33.32,61.76-55.69V379.42a122.71,122.71,0,0,0,0-244.82Zm-8.59,225.12H387a10,10,0,0,0-10.12,10v53.59c0,12.51-18.07,26.27-48.34,36.8-34.46,12-80.49,18.6-129.6,18.6s-95.14-6.61-129.61-18.6C39.07,449.56,21,435.8,21,423.29V88.71c0-12.51,18.07-26.27,48.33-36.8,34.47-12,80.5-18.6,129.61-18.6s95.14,6.61,129.6,18.6c30.27,10.53,48.34,24.29,48.34,36.8v55.61a10,10,0,0,0,10.12,10h1.29a102.71,102.71,0,0,1,0,205.42Z"/><path d="M143.59,255.65a10,10,0,0,0-10,10,7.56,7.56,0,0,1-15.11,0,10,10,0,0,0-20,0,27.56,27.56,0,0,0,55.11,0A10,10,0,0,0,143.59,255.65Z"/><path d="M280.36,255.65a10,10,0,0,0-10,10,7.56,7.56,0,0,1-15.11,0,10,10,0,0,0-20,0,27.56,27.56,0,0,0,55.11,0A10,10,0,0,0,280.36,255.65Z"/><path d="M188.19,317.57c2.34-1.93,6.69-2.63,11.09-1.77a10,10,0,0,0,3.82-19.63c-10.33-2-20.66.22-27.63,6A24.65,24.65,0,0,0,172,336.39a24.65,24.65,0,0,0,3.51,34.26c5.29,4.36,12.5,6.69,20.18,6.69a39.57,39.57,0,0,0,7.45-.72A10,10,0,0,0,199.28,357c-4.4.85-8.75.16-11.09-1.77a4.19,4.19,0,0,1-1.58-3.55c0-4.76,7.1-5.28,10.15-5.28a10,10,0,0,0,0-20c-3,0-10.15-.51-10.15-5.27A4.18,4.18,0,0,1,188.19,317.57Z"/></svg>