<svg height="300px" width="300px" fill="#000000" xmlns="http://www.w3.org/2000/svg" viewBox="0 0 512 512" x="0px" y="0px"><title>Kiss-Emoji-Emotion-Face-Expression-Feeling</title><path d="M510.27,285c-2.06-17.61-9.61-39.78-21.25-62.44a318.18,318.18,0,0,0-50.14-71c-19.36-20.68-46-43.51-80.09-60.13,18.54-24.23,16-58.7,15.92-60.28A10,10,0,0,0,365.54,22c-1.57-.12-35.88-2.6-60.11,15.8a51.62,51.62,0,0,0-98.87,0C182.33,19.35,148,21.83,146.45,22a10,10,0,0,0-9.17,9.17c-.13,1.58-2.62,36.05,15.92,60.29-34,16.61-60.72,39.44-80.08,60.12a318.18,318.18,0,0,0-50.14,71C11.34,245.17,3.79,267.34,1.73,285c-3.36,28.59,5.14,55.12,24.58,76.7a112.56,112.56,0,0,0,30.45,24L79,473.82C84.54,495.71,103.44,511,125,511H387c21.54,0,40.44-15.29,46-37.18l22.26-88.2a112.56,112.56,0,0,0,30.45-24C505.13,340.07,513.63,313.54,510.27,285Zm-155.53-243c-.61,11-3.48,29.43-15.13,41.13a231.65,231.65,0,0,0-35.89-10.54,45.53,45.53,0,0,1,9.84-15.41C325.25,45.41,343.7,42.54,354.74,41.93ZM157.26,42c11.06.64,29.57,3.54,41.18,15.15a45.66,45.66,0,0,1,9.83,15.41,232,232,0,0,0-35.89,10.54C160.74,71.37,157.87,53,157.26,42Zm-58.85,427L77.67,386.74h71L164.78,491H125C112.61,491,101.69,481.92,98.41,468.93Zm244.68-82.19L327,491H266V386.74ZM246,491H185l-16.1-104.26H246Zm167.59-22.07c-3.28,13-14.2,22.07-26.57,22.07h-39.8l16.11-104.26h71Zm57.69-121.18a96.16,96.16,0,0,1-23.17,19H63.88c-9.09-5.2-48-30.52-42.29-79.46C24.92,259,47,208.67,87.72,165.2c20.1-21.47,48.66-45.44,85.71-61,.31-.1.63-.21.94-.34a213.09,213.09,0,0,1,48.34-13.63l.34-.07,2.49-.37c.13,0,.26,0,.39,0a217.66,217.66,0,0,1,30-2.12H256a216.54,216.54,0,0,1,30.05,2.12l.45,0,2.42.35.36.08a213.09,213.09,0,0,1,48.34,13.63,7.34,7.34,0,0,0,1,.34c37,15.53,65.6,39.5,85.7,61C465,208.67,487.08,259,490.41,287.28,493.09,310.08,486.65,330.43,471.28,347.75Z"/><path d="M205.17,210.77a10,10,0,0,0-10,10,7.56,7.56,0,0,1-15.11,0,10,10,0,0,0-20,0,27.56,27.56,0,0,0,55.11,0A10,10,0,0,0,205.17,210.77Z"/><path d="M341.94,210.77a10,10,0,0,0-10,10,7.56,7.56,0,0,1-15.11,0,10,10,0,0,0-20,0,27.56,27.56,0,0,0,55.11,0A10,10,0,0,0,341.94,210.77Z"/><path d="M249.77,272.68c2.34-1.92,6.69-2.62,11.09-1.76a10,10,0,0,0,3.82-19.64c-10.33-2-20.66.22-27.63,6a24.65,24.65,0,0,0-3.51,34.26,24.65,24.65,0,0,0,3.51,34.26c5.29,4.35,12.5,6.69,20.18,6.69a39.57,39.57,0,0,0,7.45-.72,10,10,0,0,0-3.82-19.64c-4.4.86-8.75.16-11.09-1.76a4.2,4.2,0,0,1-1.58-3.55c0-4.77,7.1-5.28,10.15-5.28a10,10,0,0,0,0-20c-3,0-10.15-.51-10.15-5.28A4.2,4.2,0,0,1,249.77,272.68Z"/></svg>