<svg height="300px" width="300px" fill="#000000" xmlns="http://www.w3.org/2000/svg" viewBox="0 0 64 64" x="0px" y="0px"><g><path d="M61,16H60V15A11.013,11.013,0,0,0,49,4H38.284a4,4,0,0,0-.64-.783,4.623,4.623,0,0,0-5.652-.462,4.551,4.551,0,0,0-5.636.462,4,4,0,0,0-.64.783H15A11.013,11.013,0,0,0,4,15v1H3a1,1,0,0,0-1,1v4a1,1,0,0,0,1,1H4V56H3a1,1,0,0,0-1,1v4a1,1,0,0,0,1,1H13a1,1,0,0,0,1-1V58h6a1,1,0,0,0,.994-1.11,49.254,49.254,0,0,0-4.755-15.7C21.3,35.7,21.917,16.984,21.99,12h7.186l2.2,1.777a1,1,0,0,0,1.258,0L34.823,12H42.01c.073,4.984.687,23.7,5.751,29.193a49.254,49.254,0,0,0-4.755,15.7A1,1,0,0,0,44,58h6v3a1,1,0,0,0,1,1H61a1,1,0,0,0,1-1V57a1,1,0,0,0-1-1H60V22h1a1,1,0,0,0,1-1V17A1,1,0,0,0,61,16ZM4,18h6v2H4ZM6,50.279V46.388l4,1.333v3.891Zm4,3.441V56H6V52.387ZM6,44.28V42.387l4,1.333v1.893Zm0-4V36.388l4,1.333v3.891Zm0-6V32.387l4,1.333v1.893Zm0-4V26.388l4,1.333v3.891Zm0-6V22h4v3.613ZM12,60H4V58h8Zm6.849-4H12V43.911A18.417,18.417,0,0,1,14,53h2c0-5.7-1.553-9.141-2.816-11h1.229A46.62,46.62,0,0,1,18.849,56ZM14.62,40H12.88C14.419,37.412,17,31.767,17,23H15a32.943,32.943,0,0,1-3,14.365V15a3,3,0,0,1,3-3h4.99C19.876,19.366,18.76,35.989,14.62,40ZM15,10a5.006,5.006,0,0,0-5,5v1H6V15a9.01,9.01,0,0,1,9-9H25.045c-.015.155-.045.307-.045.466a4.426,4.426,0,0,0,1.405,3.29l.3.244ZM36.336,8.2,32,11.714,27.712,8.243A2.4,2.4,0,0,1,27,6.466a2.4,2.4,0,0,1,.712-1.778A2.463,2.463,0,0,1,29.407,4a3.232,3.232,0,0,1,1.969.761,1,1,0,0,0,1.23,0,2.748,2.748,0,0,1,3.682-.067A2.4,2.4,0,0,1,37,6.466,2.394,2.394,0,0,1,36.336,8.2Zm.955,1.8.353-.286A4.407,4.407,0,0,0,39,6.466c0-.159-.03-.311-.045-.466H49a9.01,9.01,0,0,1,9,9v1H54V15a5.006,5.006,0,0,0-5-5ZM54,51.612V47.721l4-1.333v3.891Zm4,.775V56H54V53.72Zm-4-6.774V43.72l4-1.333V44.28Zm0-4V37.721l4-1.333v3.891Zm0-6V33.72l4-1.333V34.28Zm0-4V27.721l4-1.333v3.891Zm0-6V22h4v2.28ZM44.011,12H49a3,3,0,0,1,3,3V37.384A32.866,32.866,0,0,1,49,23H47c0,8.767,2.581,14.412,4.12,17H49.38C45.242,35.99,44.125,19.369,44.011,12ZM45.15,56a46.528,46.528,0,0,1,4.437-14h1.229C49.553,43.859,48,47.3,48,53h2a18.416,18.416,0,0,1,2-9.09V56ZM60,60H52V58h8Zm0-40H54V18h6Z"/></g></svg>