<svg height="300px" width="300px" fill="#000000" xmlns="http://www.w3.org/2000/svg" data-name="Ebene 1" viewBox="0 0 56 56" x="0px" y="0px"><title>bagPacker Icons</title><path d="M12,19a5,5,0,1,1,5-5A5.00588,5.00588,0,0,1,12,19Zm0-8a3,3,0,1,0,3,3A3.00328,3.00328,0,0,0,12,11Z"/><path d="M12,8a.99943.99943,0,0,1-1-1V5a1,1,0,0,1,2,0V7A.99943.99943,0,0,1,12,8Z"/><path d="M17.58594,10.41406a1,1,0,0,1-.707-1.707L18.293,7.293A.99989.99989,0,0,1,19.707,8.707L18.293,10.12109A.99672.99672,0,0,1,17.58594,10.41406Z"/><path d="M21,15H19a1,1,0,0,1,0-2h2a1,1,0,0,1,0,2Z"/><path d="M18.41406,21.41406a.99672.99672,0,0,1-.707-.293L16.293,19.707A.99989.99989,0,0,1,17.707,18.293L19.12109,19.707a1,1,0,0,1-.707,1.707Z"/><path d="M5.58594,21.41406a1,1,0,0,1-.707-1.707L6.293,18.293A.99989.99989,0,0,1,7.707,19.707L6.293,21.12109A.99672.99672,0,0,1,5.58594,21.41406Z"/><path d="M12,24a.99943.99943,0,0,1-1-1V21a1,1,0,0,1,2,0v2A.99943.99943,0,0,1,12,24Z"/><path d="M5,15H3a1,1,0,0,1,0-2H5a1,1,0,0,1,0,2Z"/><path d="M6.41406,10.41406a.99672.99672,0,0,1-.707-.293L4.293,8.707A.99989.99989,0,0,1,5.707,7.293L7.12109,8.707a1,1,0,0,1-.707,1.707Z"/><path d="M53.55005,49.54l-21-39.99c.01-.01,0-.01,0-.01a1.89308,1.89308,0,0,0-.16-.23,1.82824,1.82824,0,0,0-.22009-.17.94041.94041,0,0,0-.23-.1,1.027,1.027,0,0,0-.54993,0,.94558.94558,0,0,0-.2301.1,1.85742,1.85742,0,0,0-.22.17,1.1897,1.1897,0,0,0-.15991.23v.01L19.52,31l-2.97-5.48c0-.00995-.01-.00995-.02-.02a.75113.75113,0,0,0-.15-.2.94929.94929,0,0,0-.20007-.15.53983.53983,0,0,0-.12988-.07.789.789,0,0,0-.14014-.05.97539.97539,0,0,0-.48,0,.58118.58118,0,0,0-.13989.05.29976.29976,0,0,0-.1001.04.96348.96348,0,0,0-.3999.4l-13,24a1.00241,1.00241,0,0,0,1.76.96L15.66992,28.1,18.63,33.57l.05994.11L27.79,50.48a1.00242,1.00242,0,0,0,1.76-.96L20.65991,33.11,23.77,27.19l3.52,3.52a1.01394,1.01394,0,0,0,1.41992,0L32,27.42l3.29,3.29a1.01394,1.01394,0,0,0,1.41992,0L39.79,27.63,51.78,50.46a.99328.99328,0,0,0,.88989.54,1.108,1.108,0,0,0,.46008-.11A.99915.99915,0,0,0,53.55005,49.54ZM36,28.58l-3.29-3.29a1.00783,1.00783,0,0,0-1.41992,0L28,28.58l-3.25-3.25,6.91992-13.18L38.82007,25.76Z"/></svg>