<svg height="300px" width="300px" fill="#000000" xmlns="http://www.w3.org/2000/svg" data-name="Layer 1" viewBox="0 0 128 128" x="0px" y="0px"><path d="M64,124a60,60,0,1,1,60-60A60.07,60.07,0,0,1,64,124ZM64,7.05a57,57,0,1,0,57,57A57,57,0,0,0,64,7.05Z"/><path d="M64,25.36a1.54,1.54,0,0,1-1.53-1.53V16.71a1.53,1.53,0,0,1,3.06,0v7.12A1.54,1.54,0,0,1,64,25.36Z"/><path d="M64,112.81a1.53,1.53,0,0,1-1.53-1.52v-7.12a1.53,1.53,0,0,1,3.06,0v7.12A1.53,1.53,0,0,1,64,112.81Z"/><path d="M16.71,65.53a1.53,1.53,0,0,1,0-3.06h7.12a1.53,1.53,0,0,1,0,3.06Z"/><path d="M45.9,21.84a1.52,1.52,0,0,1-1.41-.95,1.55,1.55,0,0,1,0-1.16,1.53,1.53,0,0,1,.83-.83,1.66,1.66,0,0,1,.58-.11,1.5,1.5,0,0,1,1.41.94,1.53,1.53,0,0,1-1.41,2.11Z"/><path d="M82.1,109.21a1.5,1.5,0,0,1-1.41-.94,1.52,1.52,0,1,1,2.82-1.16,1.55,1.55,0,0,1,0,1.16,1.53,1.53,0,0,1-.83.83A1.66,1.66,0,0,1,82.1,109.21Z"/><path d="M20.31,47.43a1.47,1.47,0,0,1-.58-.12,1.52,1.52,0,0,1,.58-2.93,1.62,1.62,0,0,1,.58.11,1.53,1.53,0,0,1,.83.83,1.49,1.49,0,0,1,0,1.17A1.53,1.53,0,0,1,20.31,47.43Z"/><path d="M107.69,83.62a1.62,1.62,0,0,1-.58-.11,1.53,1.53,0,0,1-.83-.83,1.49,1.49,0,0,1,0-1.17,1.53,1.53,0,0,1,1.41-.94,1.47,1.47,0,0,1,.58.12,1.52,1.52,0,0,1-.58,2.93Z"/><path d="M30.56,32.09a1.51,1.51,0,0,1-1.08-.45,1.53,1.53,0,0,1,2.16-2.16,1.53,1.53,0,0,1-1.08,2.61Z"/><path d="M97.44,99a1.55,1.55,0,0,1-1.08-.44,1.53,1.53,0,1,1,2.16-2.16A1.52,1.52,0,0,1,97.44,99Z"/><path d="M20.31,83.62a1.52,1.52,0,0,1-.58-2.93,1.47,1.47,0,0,1,.58-.12,1.53,1.53,0,0,1,1.41.94,1.49,1.49,0,0,1,0,1.17,1.53,1.53,0,0,1-.83.83A1.62,1.62,0,0,1,20.31,83.62Z"/><path d="M107.69,47.43a1.53,1.53,0,0,1-1.41-.94,1.49,1.49,0,0,1,0-1.17,1.53,1.53,0,0,1,.83-.83,1.62,1.62,0,0,1,.58-.11,1.52,1.52,0,0,1,.58,2.93A1.47,1.47,0,0,1,107.69,47.43Z"/><path d="M45.9,109.21a1.66,1.66,0,0,1-.58-.11,1.53,1.53,0,0,1-.83-.83,1.55,1.55,0,0,1,0-1.16,1.52,1.52,0,1,1,2.82,1.16A1.5,1.5,0,0,1,45.9,109.21Z"/><path d="M82.1,21.84a1.53,1.53,0,0,1-1.41-2.11,1.5,1.5,0,0,1,1.41-.94,1.66,1.66,0,0,1,.58.11,1.53,1.53,0,0,1,.83.83,1.55,1.55,0,0,1,0,1.16A1.52,1.52,0,0,1,82.1,21.84Z"/><path d="M30.56,99a1.52,1.52,0,0,1-1.08-2.6,1.53,1.53,0,1,1,2.16,2.16A1.55,1.55,0,0,1,30.56,99Z"/><path d="M97.44,32.09a1.53,1.53,0,0,1-1.08-2.61,1.53,1.53,0,0,1,2.16,2.16A1.51,1.51,0,0,1,97.44,32.09Z"/><path d="M64.81,65.53A2.55,2.55,0,0,1,62.27,63V41.61a1.53,1.53,0,0,1,3,0V62.47h27a1.53,1.53,0,0,1,0,3.06Z"/><path d="M104.17,65.53a1.53,1.53,0,0,1,0-3.06h7.12a1.53,1.53,0,0,1,0,3.06Z"/></svg>