<svg height="300px" width="300px" fill="#000000" xmlns="http://www.w3.org/2000/svg" xmlns:xlink="http://www.w3.org/1999/xlink" version="1.0" x="0px" y="0px" viewBox="0 0 100 100" enable-background="new 0 0 100 100" xml:space="preserve"><path d="M45.42,10c-4.085,0-7.77,1.68-10.42,4.381C32.35,11.68,28.667,10,24.585,10C16.53,10,9.999,16.53,10,24.583  c0.001,10.576,9.542,20.149,25,27.083c15.459-6.934,25.003-16.507,25-27.083C60,16.53,53.47,10,45.42,10z M35,44.298  c-11.693-5.789-18.332-12.887-18.333-19.717c0-2.112,0.824-4.1,2.318-5.596c1.496-1.496,3.485-2.319,5.601-2.319  c2.14,0,4.149,0.847,5.656,2.383L35,23.903l4.759-4.854c1.507-1.536,3.517-2.383,5.661-2.383c4.365,0,7.913,3.552,7.913,7.917  C53.337,31.411,46.696,38.509,35,44.298z"/><path d="M78.337,50c-3.271,0-6.215,1.345-8.337,3.509C67.878,51.345,64.935,50,61.667,50C55.228,50,50,55.228,50,61.667  c0,8.463,7.637,16.119,20,21.666c12.366-5.547,20.003-13.203,20-21.666C90,55.228,84.778,50,78.337,50z M70,75.944  c-8.405-4.297-13.333-9.525-13.333-14.277c0-1.335,0.521-2.588,1.465-3.535c0.947-0.944,2.2-1.465,3.535-1.465  c1.351,0,2.617,0.537,3.574,1.51L70,63.03l4.759-4.854c0.957-0.973,2.227-1.51,3.578-1.51c2.754,0,4.996,2.242,4.996,5  C83.337,66.419,78.408,71.647,70,75.944z"/><circle cx="86.667" cy="86.667" r="3.333"/><circle cx="16.667" cy="53.333" r="3.333"/><circle cx="40" cy="78.333" r="3.333"/><polygon points="40.15,63.333 43.333,56.667 36.667,59.851 30,56.667 33.184,63.333 30,70 36.667,66.816 43.333,70 "/><polygon points="83.483,33.333 86.667,26.667 80,29.85 73.333,26.667 76.517,33.333 73.333,40 80,36.816 86.667,40 "/><polygon points="17.611,78.333 20,73.333 15,75.723 10,73.333 12.389,78.333 10,83.333 15,80.944 20,83.333 "/><circle cx="86.667" cy="13.333" r="3.333"/><circle cx="68.333" cy="20" r="3.333"/><circle cx="62.5" cy="40.833" r="2.5"/><circle cx="22.5" cy="65.833" r="2.5"/><path d="M56.667,84.167c0,1.383-1.12,2.5-2.5,2.5c-1.381,0-2.5-1.117-2.5-2.5c0-1.384,1.119-2.5,2.5-2.5  C55.547,81.667,56.667,82.783,56.667,84.167z"/><path d="M30,87.5c0,1.384-1.12,2.5-2.5,2.5S25,88.884,25,87.5s1.12-2.5,2.5-2.5S30,86.116,30,87.5z"/></svg>