<svg height="300px" width="300px" fill="#000000" xmlns="http://www.w3.org/2000/svg" xmlns:xlink="http://www.w3.org/1999/xlink" version="1.1" x="0px" y="0px" viewBox="0 0 128 128" enable-background="new 0 0 128 128" xml:space="preserve"><path fill="#000000" d="M94.7,48.9c0.1-0.3,0.2-0.6,0.2-0.9V32C94.8,14.9,81,1,64,1S33.2,14.9,33.2,32v16c0,0.3,0.1,0.6,0.2,0.9  c-9,3.7-15.4,12.5-14.9,22.6C19.1,85,49,114.8,60,125.4c2.2,2.2,5.8,2.1,8,0c11.1-10.8,41.6-41.4,41.6-53.9  C109.6,61.3,103.4,52.6,94.7,48.9z M69.5,101.8h-11l2.4-15.7c-1.9-1.1-3.2-3.2-3.2-5.5c0-3.5,2.8-6.4,6.3-6.4c3.5,0,6.3,2.8,6.3,6.4  c0,2.4-1.3,4.4-3.2,5.5L69.5,101.8z M89.7,47.4c-1.5-0.3-3-0.4-4.6-0.4c-9,0-16.9,4.9-21.1,12.2c-4.2-7.3-12.1-12.2-21.1-12.2  c-1.6,0-3.1,0.2-4.6,0.4V32C38.3,17.7,49.8,6.1,64,6.1c14.2,0,25.7,11.6,25.7,25.8V47.4z"/></svg>