<svg height="300px" width="300px" fill="#000000" xmlns="http://www.w3.org/2000/svg" viewBox="0 0 512 512" x="0px" y="0px"><title>Kiss-Emoji-Emotion-Face-Expression-Feeling_1</title><path d="M491.73,267.18c-20.26-57.54-51-111-67.49-137.7C388.66,71.86,345.1,45.19,314.82,33,283,20.1,258.87,20,256,20S229,20.1,197.18,33c-30.28,12.23-73.84,38.9-109.42,96.52-16.51,26.73-47.23,80.16-67.49,137.7-22,62.52-25.19,111.65-9.44,146,14,30.63,44.43,51.64,92.93,64.24,34,8.83,76.07,13.46,131.17,14.37q21.07.36,42.14,0c55.1-.91,97.16-5.54,131.17-14.37,48.5-12.6,78.9-33.61,92.93-64.24C516.92,378.83,513.74,329.7,491.73,267.18ZM483,404.86c-11.37,24.81-37.47,42.22-79.78,53.21A356.61,356.61,0,0,1,362,466V316a23.72,23.72,0,0,0-23.7-23.7H173.66A23.72,23.72,0,0,0,150,316V466a356.61,356.61,0,0,1-41.17-7.9c-42.31-11-68.41-28.4-79.78-53.21C1.43,344.68,50.06,228.58,104.77,140c26.06-42.2,59.35-71.84,99-88.1C231.85,40.33,253.36,40,255.56,40h.66c.21,0,22.48-.28,52.06,11.87,39.6,16.26,72.89,45.9,99,88.1C461.94,228.58,510.57,344.68,483,404.86Z"/><path d="M205.17,169.91a10,10,0,0,0-10,10,7.56,7.56,0,0,1-15.11,0,10,10,0,0,0-20,0,27.56,27.56,0,0,0,55.11,0A10,10,0,0,0,205.17,169.91Z"/><path d="M341.94,169.91a10,10,0,0,0-10,10,7.56,7.56,0,0,1-15.11,0,10,10,0,0,0-20,0,27.56,27.56,0,0,0,55.11,0A10,10,0,0,0,341.94,169.91Z"/><path d="M204,218.44a22.55,22.55,0,0,0-17.61-4.57,25.5,25.5,0,0,0-10.52,4.6,25.5,25.5,0,0,0-10.52-4.6,22.52,22.52,0,0,0-17.62,4.57c-7.28,5.45-11.19,13.17-11,21.73.33,14.48,11.82,29.85,33.22,44.47l.37.25a9.94,9.94,0,0,0,5.49,1.68h.06a10,10,0,0,0,6-2c21.34-14.59,32.78-29.93,33.11-44.39C215.14,231.61,211.24,223.89,204,218.44Z"/><path d="M249.77,222.83c2.34-1.93,6.69-2.62,11.09-1.77a10,10,0,0,0,3.82-19.63c-10.33-2-20.66.22-27.63,6a24.65,24.65,0,0,0-3.51,34.26,24.65,24.65,0,0,0,3.51,34.26c5.29,4.36,12.5,6.69,20.18,6.69a38.76,38.76,0,0,0,7.45-.72,10,10,0,0,0-3.82-19.63c-4.4.85-8.75.16-11.09-1.77a4.19,4.19,0,0,1-1.58-3.55c0-4.76,7.1-5.28,10.15-5.28a10,10,0,0,0,0-20c-3,0-10.15-.51-10.15-5.27A4.18,4.18,0,0,1,249.77,222.83Z"/></svg>