<svg height="300px" width="300px" fill="#000000" xmlns="http://www.w3.org/2000/svg" xmlns:xlink="http://www.w3.org/1999/xlink" version="1.0" x="0px" y="0px" viewBox="0 0 100 100" enable-background="new 0 0 100 100" xml:space="preserve"><path d="M83.333,16.667h-10V10h-6.666v6.667H33.333V10h-6.667v6.667h-10C13,16.667,10,19.668,10,23.333v60  C10,86.999,13,90,16.667,90h66.667C86.999,90,90,86.999,90,83.333v-60C90,19.668,86.999,16.667,83.333,16.667z M83.333,83.333  H16.667v-60h10V30h6.667v-6.667h33.333V30h6.666v-6.667h10V83.333z"/><path d="M68.884,40.292c-4.838-4.833-12.666-4.833-17.497,0l-1.384,1.383l-1.383-1.383c-4.828-4.833-12.665-4.833-17.497,0  c-4.829,4.834-4.834,12.67,0,17.495l18.88,18.881l18.881-18.881C73.714,52.962,73.714,45.125,68.884,40.292z M64.173,53.069  l-14.17,14.17L35.836,53.073c-1.079-1.078-1.671-2.507-1.67-4.03c0-1.525,0.594-2.96,1.673-4.04c1.076-1.076,2.508-1.67,4.033-1.67  s2.956,0.594,4.033,1.67l6.097,6.103l6.101-6.103c1.074-1.076,2.507-1.67,4.03-1.67s2.959,0.596,4.039,1.675  c1.074,1.074,1.667,2.508,1.667,4.035C65.84,50.566,65.247,51.995,64.173,53.069z"/></svg>