<svg height="300px" width="300px" fill="#000000" xmlns="http://www.w3.org/2000/svg" xmlns:xlink="http://www.w3.org/1999/xlink" version="1.1" x="0px" y="0px" viewBox="0 0 100 100" style="enable-background:new 0 0 100 100;" xml:space="preserve"><g><path d="M50.2,33.8c-3.7,0-6.7,3-6.7,6.7v5h13.3v-5C56.9,36.7,53.9,33.8,50.2,33.8z"/><path d="M52.6,56c0.7-0.6,1.1-1.5,1.1-2.5c0-1.9-1.5-3.4-3.4-3.4s-3.4,1.5-3.4,3.4c0,1,0.4,1.9,1.1,2.5l-2.5,5.5   c-0.1,0.2-0.1,0.4,0,0.6c0.1,0.2,0.3,0.3,0.5,0.3c0,0,0,0,0,0l8.3-0.1c0.2,0,0.4-0.1,0.5-0.3c0.1-0.2,0.1-0.4,0-0.5L52.6,56z"/><path d="M50,16.3c-24.8,0-45,15-45,33.5c0,7.2,3.1,13.9,8.3,19.4c-1.1,3.2-3.7,6.4-6.9,7.7C1.6,78.7,10,86,24.9,77.5   c7.2,3.6,15.8,5.7,25.1,5.7c24.8,0,45-15,45-33.5S74.8,16.3,50,16.3z M64.5,63.2c0,2.5-2,4.5-4.5,4.5H40.4c-2.5,0-4.5-2-4.5-4.5V50   c0-2,1.3-3.7,3.2-4.3v-5.2c0-6.2,5-11.2,11.2-11.2c6.2,0,11.2,5,11.2,11.2v5.2c1.8,0.6,3.2,2.3,3.2,4.3V63.2z"/></g></svg>