<svg height="300px" width="300px" fill="#000000" xmlns="http://www.w3.org/2000/svg" data-name="Layer 1" viewBox="0 0 512 512" x="0px" y="0px"><title>Moon</title><path d="M351.381,329h-.439c-101.635,0-184.335-79.44-184.335-177.535a168.4,168.4,0,0,1,7.63-50.595c-52.025,28.607-84.706,81.977-84.706,140.572,0,89.272,75.524,161.925,168.354,161.925,60.789,0,116.093-31.62,145.9-81.43A187.346,187.346,0,0,1,351.381,329Z"/><path d="M307.455,84.617l10.178-5.155a8,8,0,0,1,7.23,0l10.179,5.155-1.866-10.478a8,8,0,0,1,2.4-7.234l7.623-7.159-10.821-1.515a8,8,0,0,1-6.011-4.275l-5.119-9.993-5.12,9.993a8,8,0,0,1-6.011,4.275L299.3,59.746l7.623,7.159a8,8,0,0,1,2.4,7.234Z"/><path d="M52.16,75.771l-1.491,8.376,8.219-4.162a8,8,0,0,1,7.23,0l8.218,4.162-1.491-8.375a8,8,0,0,1,2.4-7.234l6.039-5.671-8.63-1.208a8,8,0,0,1-6.011-4.275L62.5,49.3l-4.14,8.081a8,8,0,0,1-6.01,4.275l-8.631,1.209,6.039,5.67A8,8,0,0,1,52.16,75.771Z"/><path d="M468.277,430.1l-18.793-2.631a8,8,0,0,1-6.011-4.275l-8.685-16.953L426.1,423.192a8,8,0,0,1-6.011,4.275L401.3,430.1l13.392,12.577a8,8,0,0,1,2.4,7.234l-3.227,18.128,17.309-8.767a8,8,0,0,1,7.23,0l17.309,8.767-3.227-18.128a8,8,0,0,1,2.4-7.234Z"/><path d="M341.09,204.058l-23,3.22,16.436,15.435a8,8,0,0,1,2.4,7.234l-3.946,22.163,21.071-10.672a8,8,0,0,1,7.23,0l21.072,10.673-3.946-22.165a8,8,0,0,1,2.4-7.233l16.436-15.435-23-3.22a8,8,0,0,1-6.011-4.275l-10.566-20.625L347.1,199.783A8,8,0,0,1,341.09,204.058Z"/><path d="M71.843,419.67l-3.869-7.552-3.869,7.552a8,8,0,0,1-6.011,4.275l-8.024,1.123,5.6,5.259a8,8,0,0,1,2.4,7.234l-1.387,7.794,7.676-3.888a8,8,0,0,1,7.23,0l7.677,3.888-1.388-7.794a8,8,0,0,1,2.4-7.234l5.6-5.259-8.024-1.123A8,8,0,0,1,71.843,419.67Z"/></svg>